<svg width="25" height="25" viewBox="0 0 25 25" fill="none" xmlns="http://www.w3.org/2000/svg">
<path d="M8.21753 19.7068C8.21753 19.8045 8.10522 19.8826 7.96362 19.8826C7.80249 19.8973 7.69019 19.8192 7.69019 19.7068C7.69019 19.6092 7.80249 19.5311 7.94409 19.5311C8.09058 19.5164 8.21753 19.5945 8.21753 19.7068ZM6.69897 19.4871C6.6648 19.5848 6.76245 19.6971 6.90894 19.7264C7.03589 19.7752 7.18237 19.7264 7.21167 19.6287C7.24097 19.5311 7.14819 19.4188 7.00171 19.3748C6.87476 19.3406 6.73315 19.3895 6.69897 19.4871ZM8.85718 19.4041C8.71558 19.4383 8.61792 19.5311 8.63257 19.6434C8.64722 19.741 8.77417 19.8045 8.92065 19.7703C9.06226 19.7361 9.15991 19.6434 9.14526 19.5457C9.13061 19.4529 8.99878 19.3895 8.85718 19.4041ZM12.0701 0.693176C5.29761 0.693176 0.116943 5.83478 0.116943 12.6072C0.116943 18.0223 3.52515 22.6561 8.39331 24.2869C9.01831 24.3992 9.23804 24.0135 9.23804 23.6961C9.23804 23.3934 9.22339 21.7235 9.22339 20.6981C9.22339 20.6981 5.80542 21.4305 5.08765 19.243C5.08765 19.243 4.53101 17.8221 3.73022 17.4559C3.73022 17.4559 2.61206 16.6893 3.80835 16.7039C3.80835 16.7039 5.02417 16.8016 5.69312 17.9637C6.76245 19.8485 8.55444 19.3065 9.25269 18.9842C9.36499 18.2029 9.68237 17.6609 10.0339 17.3387C7.30444 17.0359 4.55054 16.6404 4.55054 11.9432C4.55054 10.6004 4.92163 9.92657 5.70288 9.0672C5.57593 8.74982 5.16089 7.44122 5.82983 5.75177C6.85034 5.43439 9.19897 7.07013 9.19897 7.07013C10.1755 6.79669 11.2253 6.65509 12.2654 6.65509C13.3054 6.65509 14.3552 6.79669 15.3318 7.07013C15.3318 7.07013 17.6804 5.4295 18.7009 5.75177C19.3699 7.44611 18.9548 8.74982 18.8279 9.0672C19.6091 9.93146 20.0876 10.6053 20.0876 11.9432C20.0876 16.6551 17.2117 17.0311 14.4822 17.3387C14.9314 17.7244 15.3123 18.4568 15.3123 19.6043C15.3123 21.2498 15.2976 23.2859 15.2976 23.6863C15.2976 24.0037 15.5222 24.3895 16.1423 24.2772C21.0251 22.6561 24.3357 18.0223 24.3357 12.6072C24.3357 5.83478 18.8425 0.693176 12.0701 0.693176ZM4.86304 17.534C4.79956 17.5828 4.81421 17.6951 4.89722 17.7879C4.97534 17.866 5.08765 17.9002 5.15112 17.8367C5.2146 17.7879 5.19995 17.6756 5.11694 17.5828C5.03882 17.5047 4.92651 17.4705 4.86304 17.534ZM4.33569 17.1385C4.30151 17.202 4.35034 17.2801 4.448 17.3289C4.52612 17.3777 4.62378 17.3631 4.65796 17.2947C4.69214 17.2313 4.64331 17.1531 4.54565 17.1043C4.448 17.075 4.36987 17.0897 4.33569 17.1385ZM5.91772 18.8768C5.8396 18.9402 5.8689 19.0867 5.9812 19.1795C6.09351 19.2918 6.23511 19.3065 6.29858 19.2283C6.36206 19.1649 6.33276 19.0184 6.23511 18.9256C6.12769 18.8133 5.9812 18.7986 5.91772 18.8768ZM5.36108 18.159C5.28296 18.2078 5.28296 18.3348 5.36108 18.4471C5.43921 18.5594 5.57104 18.6082 5.63452 18.5594C5.71265 18.4959 5.71265 18.369 5.63452 18.2567C5.56616 18.1443 5.43921 18.0955 5.36108 18.159Z" fill="#6E07F3"/>
</svg>
